# xmcd
#
# Track frame offsets: 
#        150
#        31280
#        63834
#        94353
#        110333
#        131994
#        159321
#
# Disc length: 2592 seconds
#
# Revision: 1
# Processed by: cddbd v1.5.2PL0 Copyright (c) Steve Scherf et al.
# Submitted via: ExactAudioCopyFreeDBPlugin 1.0
#
DISCID=580a1e07
DTITLE=Joshua Redman Quartet - Come What May
DYEAR=2019
DGENRE=Jazz
TTITLE0=Circle of Life
TTITLE1=I'll Go Mine
TTITLE2=Come What May
TTITLE3=How We Do
TTITLE4=DGAF
TTITLE5=Stagger Bear
TTITLE6=Vast
EXTD=YEAR: 2019
EXTT0=
EXTT1=
EXTT2=
EXTT3=
EXTT4=
EXTT5=
EXTT6=
PLAYORDER=
